<mxfile host="app.diagrams.net" agent="Mozilla/5.0 (Windows NT 10.0; Win64; x64) AppleWebKit/537.36 (KHTML, like Gecko) Chrome/141.0.0.0 Safari/537.36" version="28.2.7">
  <diagram name="게시판 생성 로직" id="backend-board-creation">
    <mxGraphModel dx="1678" dy="914" grid="1" gridSize="10" guides="1" tooltips="1" connect="1" arrows="1" fold="1" page="1" pageScale="1" pageWidth="1169" pageHeight="1654" background="light-dark(#FFFFFF,#FFFFFF)" math="0" shadow="0">
      <root>
        <mxCell id="0" />
        <mxCell id="1" parent="0" />
        <mxCell id="start" value="게시글 생성 요청" style="rounded=1;whiteSpace=wrap;html=1;fillColor=#0050ef;strokeColor=#001DBC;fontStyle=1;fontSize=14;strokeWidth=2;fontColor=#ffffff;" parent="1" vertex="1">
          <mxGeometry x="484.5" y="40" width="200" height="60" as="geometry" />
        </mxCell>
        <mxCell id="auth" value="JWT 토큰 검증" style="rounded=0;whiteSpace=wrap;html=1;fillColor=#1ba1e2;strokeColor=#006EAF;strokeWidth=2;fontColor=#ffffff;" parent="1" vertex="1">
          <mxGeometry x="484.5" y="140" width="200" height="60" as="geometry" />
        </mxCell>
        <mxCell id="arrow1" style="edgeStyle=orthogonalEdgeStyle;rounded=0;orthogonalLoop=1;jettySize=auto;html=1;entryX=0.5;entryY=0;entryDx=0;entryDy=0;strokeWidth=2;strokeColor=light-dark(#E1D5E7,#3333FF);" parent="1" source="start" target="auth" edge="1">
          <mxGeometry relative="1" as="geometry" />
        </mxCell>
        <mxCell id="userLookup" value="UserTbl 조회&#xa;(이메일로)" style="rounded=0;whiteSpace=wrap;html=1;fillColor=#1ba1e2;strokeColor=#006EAF;strokeWidth=2;fontColor=#ffffff;" parent="1" vertex="1">
          <mxGeometry x="484.5" y="240" width="200" height="60" as="geometry" />
        </mxCell>
        <mxCell id="arrow2" style="edgeStyle=orthogonalEdgeStyle;rounded=0;orthogonalLoop=1;jettySize=auto;html=1;strokeWidth=2;strokeColor=light-dark(#E1D5E7,#3333FF);" parent="1" source="auth" target="userLookup" edge="1">
          <mxGeometry relative="1" as="geometry" />
        </mxCell>
        <mxCell id="roleCheck" value="isAdmin?&#xa;isProfessor?" style="rhombus;whiteSpace=wrap;html=1;fillColor=#a20025;strokeColor=#6F0000;fontStyle=1;strokeWidth=2;fontColor=#ffffff;" parent="1" vertex="1">
          <mxGeometry x="509.5" y="340" width="150" height="150" as="geometry" />
        </mxCell>
        <mxCell id="arrow3" style="edgeStyle=orthogonalEdgeStyle;rounded=0;orthogonalLoop=1;jettySize=auto;html=1;strokeWidth=2;strokeColor=light-dark(#E1D5E7,#3333FF);" parent="1" source="userLookup" target="roleCheck" edge="1">
          <mxGeometry relative="1" as="geometry" />
        </mxCell>
        <mxCell id="noAuth" value="권한 없음&#xa;❌ 실패" style="rounded=1;whiteSpace=wrap;html=1;fillColor=#6d8764;strokeColor=#3A5431;fontStyle=1;strokeWidth=2;fontColor=#ffffff;" parent="1" vertex="1">
          <mxGeometry x="724.5" y="385" width="120" height="60" as="geometry" />
        </mxCell>
        <mxCell id="arrow4" value="학생" style="edgeStyle=orthogonalEdgeStyle;rounded=0;orthogonalLoop=1;jettySize=auto;html=1;exitX=1;exitY=0.5;exitDx=0;exitDy=0;strokeWidth=2;strokeColor=light-dark(#E1D5E7,#3333FF);" parent="1" source="roleCheck" target="noAuth" edge="1">
          <mxGeometry relative="1" as="geometry" />
        </mxCell>
        <mxCell id="boardCodeCheck" value="BOARD_CODE&#xa;검증 (0-3)" style="rhombus;whiteSpace=wrap;html=1;fillColor=#a20025;strokeColor=#6F0000;strokeWidth=2;fontColor=#ffffff;" parent="1" vertex="1">
          <mxGeometry x="509.5" y="540" width="150" height="150" as="geometry" />
        </mxCell>
        <mxCell id="arrow5" value="✓" style="edgeStyle=orthogonalEdgeStyle;rounded=0;orthogonalLoop=1;jettySize=auto;html=1;strokeWidth=2;strokeColor=light-dark(#E1D5E7,#3333FF);" parent="1" source="roleCheck" target="boardCodeCheck" edge="1">
          <mxGeometry relative="1" as="geometry" />
        </mxCell>
        <mxCell id="codeDecision" value="BOARD_CODE?" style="rhombus;whiteSpace=wrap;html=1;fillColor=#d80073;strokeColor=#A50040;fontStyle=1;fontSize=13;strokeWidth=2;fontColor=#ffffff;" parent="1" vertex="1">
          <mxGeometry x="509.5" y="740" width="150" height="150" as="geometry" />
        </mxCell>
        <mxCell id="arrow6" style="edgeStyle=orthogonalEdgeStyle;rounded=0;orthogonalLoop=1;jettySize=auto;html=1;strokeWidth=2;strokeColor=light-dark(#E1D5E7,#3333FF);" parent="1" source="boardCodeCheck" target="codeDecision" edge="1">
          <mxGeometry relative="1" as="geometry" />
        </mxCell>
        <mxCell id="adminOnly" value="관리자 전용&#xa;검증" style="rounded=0;whiteSpace=wrap;html=1;fillColor=#6d8764;strokeColor=#3A5431;strokeWidth=2;fontColor=#ffffff;" parent="1" vertex="1">
          <mxGeometry x="234.5" y="785" width="160" height="60" as="geometry" />
        </mxCell>
        <mxCell id="arrow7" value="0-2" style="edgeStyle=orthogonalEdgeStyle;rounded=0;orthogonalLoop=1;jettySize=auto;html=1;exitX=0;exitY=0.5;exitDx=0;exitDy=0;strokeWidth=2;strokeColor=light-dark(#E1D5E7,#3333FF);" parent="1" source="codeDecision" target="adminOnly" edge="1">
          <mxGeometry relative="1" as="geometry" />
        </mxCell>
        <mxCell id="adminCheck" value="isAdmin?" style="rhombus;whiteSpace=wrap;html=1;fillColor=#a20025;strokeColor=#6F0000;strokeWidth=2;fontColor=#ffffff;" parent="1" vertex="1">
          <mxGeometry x="239.5" y="895" width="150" height="150" as="geometry" />
        </mxCell>
        <mxCell id="arrow8" style="edgeStyle=orthogonalEdgeStyle;rounded=0;orthogonalLoop=1;jettySize=auto;html=1;strokeWidth=2;strokeColor=light-dark(#E1D5E7,#3333FF);" parent="1" source="adminOnly" target="adminCheck" edge="1">
          <mxGeometry relative="1" as="geometry" />
        </mxCell>
        <mxCell id="adminFail" value="관리자만 가능&#xa;❌ 실패" style="rounded=1;whiteSpace=wrap;html=1;fillColor=#a0522d;strokeColor=#6D1F00;fontStyle=1;strokeWidth=2;fontColor=#ffffff;" parent="1" vertex="1">
          <mxGeometry x="64.5" y="940" width="120" height="60" as="geometry" />
        </mxCell>
        <mxCell id="arrow9" value="❌" style="edgeStyle=orthogonalEdgeStyle;rounded=0;orthogonalLoop=1;jettySize=auto;html=1;exitX=0;exitY=0.5;exitDx=0;exitDy=0;strokeWidth=2;strokeColor=light-dark(#E1D5E7,#3333FF);" parent="1" source="adminCheck" target="adminFail" edge="1">
          <mxGeometry relative="1" as="geometry" />
        </mxCell>
        <mxCell id="lectureNotice" value="강의 공지&#xa;(BOARD_CODE=3)" style="rounded=0;whiteSpace=wrap;html=1;fillColor=#6d8764;strokeColor=#3A5431;fontStyle=1;strokeWidth=2;fontColor=#ffffff;" parent="1" vertex="1">
          <mxGeometry x="774.5" y="785" width="160" height="60" as="geometry" />
        </mxCell>
        <mxCell id="arrow10" value="3" style="edgeStyle=orthogonalEdgeStyle;rounded=0;orthogonalLoop=1;jettySize=auto;html=1;exitX=1;exitY=0.5;exitDx=0;exitDy=0;strokeWidth=2;strokeColor=light-dark(#E1D5E7,#3333FF);" parent="1" source="codeDecision" target="lectureNotice" edge="1">
          <mxGeometry relative="1" as="geometry" />
        </mxCell>
        <mxCell id="lecSerialCheck" value="lecSerial&#xa;존재?" style="rhombus;whiteSpace=wrap;html=1;fillColor=#a20025;strokeColor=#6F0000;strokeWidth=2;fontColor=#ffffff;" parent="1" vertex="1">
          <mxGeometry x="779.5" y="895" width="150" height="150" as="geometry" />
        </mxCell>
        <mxCell id="arrow11" style="edgeStyle=orthogonalEdgeStyle;rounded=0;orthogonalLoop=1;jettySize=auto;html=1;strokeWidth=2;strokeColor=light-dark(#E1D5E7,#3333FF);" parent="1" source="lectureNotice" target="lecSerialCheck" edge="1">
          <mxGeometry relative="1" as="geometry" />
        </mxCell>
        <mxCell id="lecSerialFail" value="lecSerial 필수&#xa;❌ 실패" style="rounded=1;whiteSpace=wrap;html=1;fillColor=#a0522d;strokeColor=#6D1F00;fontStyle=1;strokeWidth=2;fontColor=#ffffff;" parent="1" vertex="1">
          <mxGeometry x="984.5" y="940" width="120" height="60" as="geometry" />
        </mxCell>
        <mxCell id="arrow12" value="❌" style="edgeStyle=orthogonalEdgeStyle;rounded=0;orthogonalLoop=1;jettySize=auto;html=1;exitX=1;exitY=0.5;exitDx=0;exitDy=0;strokeWidth=2;strokeColor=light-dark(#E1D5E7,#3333FF);" parent="1" source="lecSerialCheck" target="lecSerialFail" edge="1">
          <mxGeometry relative="1" as="geometry" />
        </mxCell>
        <mxCell id="roleCheckLec" value="역할?" style="rhombus;whiteSpace=wrap;html=1;fillColor=#d80073;strokeColor=#A50040;fontStyle=1;strokeWidth=2;fontColor=#ffffff;" parent="1" vertex="1">
          <mxGeometry x="779.5" y="1095" width="150" height="150" as="geometry" />
        </mxCell>
        <mxCell id="arrow13" value="✓" style="edgeStyle=orthogonalEdgeStyle;rounded=0;orthogonalLoop=1;jettySize=auto;html=1;strokeWidth=2;strokeColor=light-dark(#E1D5E7,#3333FF);" parent="1" source="lecSerialCheck" target="roleCheckLec" edge="1">
          <mxGeometry relative="1" as="geometry" />
        </mxCell>
        <mxCell id="profCheck" value="USER_IDX로&#xa;LEC_PROF 조회" style="rounded=0;whiteSpace=wrap;html=1;fillColor=#f0a30a;strokeColor=#BD7000;strokeWidth=2;fontColor=#000000;" parent="1" vertex="1">
          <mxGeometry x="964.5" y="1140" width="160" height="60" as="geometry" />
        </mxCell>
        <mxCell id="arrow14" value="교수" style="edgeStyle=orthogonalEdgeStyle;rounded=0;orthogonalLoop=1;jettySize=auto;html=1;exitX=1;exitY=0.5;exitDx=0;exitDy=0;strokeWidth=2;strokeColor=light-dark(#E1D5E7,#3333FF);" parent="1" source="roleCheckLec" target="profCheck" edge="1">
          <mxGeometry relative="1" as="geometry" />
        </mxCell>
        <mxCell id="profLecCheck" value="담당 강의?" style="rhombus;whiteSpace=wrap;html=1;fillColor=#a20025;strokeColor=#6F0000;strokeWidth=2;fontColor=#ffffff;" parent="1" vertex="1">
          <mxGeometry x="969.5" y="1250" width="150" height="150" as="geometry" />
        </mxCell>
        <mxCell id="arrow15" style="edgeStyle=orthogonalEdgeStyle;rounded=0;orthogonalLoop=1;jettySize=auto;html=1;strokeWidth=2;strokeColor=light-dark(#E1D5E7,#3333FF);" parent="1" source="profCheck" target="profLecCheck" edge="1">
          <mxGeometry relative="1" as="geometry" />
        </mxCell>
        <mxCell id="profFail" value="담당 강의만 가능&#xa;❌ 실패" style="rounded=1;whiteSpace=wrap;html=1;fillColor=#a0522d;strokeColor=#6D1F00;fontStyle=1;strokeWidth=2;fontColor=#ffffff;" parent="1" vertex="1">
          <mxGeometry x="1174.5" y="1295" width="140" height="60" as="geometry" />
        </mxCell>
        <mxCell id="arrow16" value="❌" style="edgeStyle=orthogonalEdgeStyle;rounded=0;orthogonalLoop=1;jettySize=auto;html=1;exitX=1;exitY=0.5;exitDx=0;exitDy=0;strokeWidth=2;strokeColor=light-dark(#E1D5E7,#3333FF);" parent="1" source="profLecCheck" target="profFail" edge="1">
          <mxGeometry relative="1" as="geometry" />
        </mxCell>
        <mxCell id="adminLecCheck" value="강의 존재&#xa;여부 확인" style="rounded=0;whiteSpace=wrap;html=1;fillColor=#f0a30a;strokeColor=#BD7000;strokeWidth=2;fontColor=#000000;" parent="1" vertex="1">
          <mxGeometry x="594.5" y="1140" width="160" height="60" as="geometry" />
        </mxCell>
        <mxCell id="arrow17" value="관리자" style="edgeStyle=orthogonalEdgeStyle;rounded=0;orthogonalLoop=1;jettySize=auto;html=1;exitX=0;exitY=0.5;exitDx=0;exitDy=0;strokeWidth=2;strokeColor=light-dark(#E1D5E7,#3333FF);" parent="1" source="roleCheckLec" target="adminLecCheck" edge="1">
          <mxGeometry relative="1" as="geometry" />
        </mxCell>
        <mxCell id="adminLecExist" value="강의 존재?" style="rhombus;whiteSpace=wrap;html=1;fillColor=#a20025;strokeColor=#6F0000;strokeWidth=2;fontColor=#ffffff;" parent="1" vertex="1">
          <mxGeometry x="599.5" y="1250" width="150" height="150" as="geometry" />
        </mxCell>
        <mxCell id="arrow18" style="edgeStyle=orthogonalEdgeStyle;rounded=0;orthogonalLoop=1;jettySize=auto;html=1;strokeWidth=2;strokeColor=light-dark(#E1D5E7,#3333FF);" parent="1" source="adminLecCheck" target="adminLecExist" edge="1">
          <mxGeometry relative="1" as="geometry" />
        </mxCell>
        <mxCell id="lecNotExist" value="강의 없음&#xa;❌ 실패" style="rounded=1;whiteSpace=wrap;html=1;fillColor=#a0522d;strokeColor=#6D1F00;fontStyle=1;strokeWidth=2;fontColor=#ffffff;" parent="1" vertex="1">
          <mxGeometry x="424.5" y="1295" width="120" height="60" as="geometry" />
        </mxCell>
        <mxCell id="arrow19" value="❌" style="edgeStyle=orthogonalEdgeStyle;rounded=0;orthogonalLoop=1;jettySize=auto;html=1;exitX=0;exitY=0.5;exitDx=0;exitDy=0;strokeWidth=2;strokeColor=light-dark(#E1D5E7,#3333FF);" parent="1" source="adminLecExist" target="lecNotExist" edge="1">
          <mxGeometry relative="1" as="geometry" />
        </mxCell>
        <mxCell id="success" value="✅ 게시글 생성 성공" style="rounded=1;whiteSpace=wrap;html=1;fillColor=#f0a30a;strokeColor=#BD7000;fontStyle=1;fontSize=14;strokeWidth=2;fontColor=#000000;" parent="1" vertex="1">
          <mxGeometry x="460" y="1480" width="200" height="60" as="geometry" />
        </mxCell>
        <mxCell id="arrow20" value="✓" style="edgeStyle=orthogonalEdgeStyle;rounded=0;orthogonalLoop=1;jettySize=auto;html=1;exitX=0.5;exitY=1;exitDx=0;exitDy=0;entryX=0;entryY=0.5;entryDx=0;entryDy=0;strokeWidth=2;strokeColor=light-dark(#E1D5E7,#3333FF);" parent="1" source="adminCheck" target="success" edge="1">
          <mxGeometry relative="1" as="geometry">
            <Array as="points">
              <mxPoint x="314.5" y="1510" />
            </Array>
          </mxGeometry>
        </mxCell>
        <mxCell id="arrow21" value="✓" style="edgeStyle=orthogonalEdgeStyle;rounded=0;orthogonalLoop=1;jettySize=auto;html=1;exitX=0.5;exitY=1;exitDx=0;exitDy=0;entryX=0.5;entryY=1;entryDx=0;entryDy=0;strokeWidth=2;strokeColor=light-dark(#E1D5E7,#3333FF);" parent="1" source="adminLecExist" target="success" edge="1">
          <mxGeometry relative="1" as="geometry">
            <Array as="points">
              <mxPoint x="675" y="1580" />
              <mxPoint x="560" y="1580" />
            </Array>
          </mxGeometry>
        </mxCell>
        <mxCell id="arrow22" value="✓" style="edgeStyle=orthogonalEdgeStyle;rounded=0;orthogonalLoop=1;jettySize=auto;html=1;exitX=0.5;exitY=1;exitDx=0;exitDy=0;entryX=1;entryY=0.5;entryDx=0;entryDy=0;strokeWidth=2;strokeColor=light-dark(#E1D5E7,#3333FF);" parent="1" source="profLecCheck" target="success" edge="1">
          <mxGeometry relative="1" as="geometry">
            <Array as="points">
              <mxPoint x="1044.5" y="1510" />
            </Array>
          </mxGeometry>
        </mxCell>
        <mxCell id="legend" value="범례" style="rounded=0;whiteSpace=wrap;html=1;fillColor=#60a917;strokeColor=#2D7600;fontStyle=1;align=left;verticalAlign=top;spacingLeft=10;spacingTop=10;strokeWidth=2;fontColor=#ffffff;" parent="1" vertex="1">
          <mxGeometry x="40" y="20" width="280" height="240" as="geometry" />
        </mxCell>
        <mxCell id="legend1" value="시작/종료" style="rounded=1;whiteSpace=wrap;html=1;fillColor=#d80073;strokeColor=#A50040;strokeWidth=2;fontColor=#ffffff;" parent="1" vertex="1">
          <mxGeometry x="60" y="70" width="120" height="30" as="geometry" />
        </mxCell>
        <mxCell id="legend2" value="처리" style="rounded=0;whiteSpace=wrap;html=1;fillColor=#d80073;strokeColor=#A50040;strokeWidth=2;fontColor=#ffffff;" parent="1" vertex="1">
          <mxGeometry x="60" y="110" width="120" height="30" as="geometry" />
        </mxCell>
        <mxCell id="legend3" value="분기" style="rhombus;whiteSpace=wrap;html=1;fillColor=#a20025;strokeColor=#6F0000;strokeWidth=2;fontColor=#ffffff;" parent="1" vertex="1">
          <mxGeometry x="80" y="150" width="80" height="40" as="geometry" />
        </mxCell>
        <mxCell id="legend4" value="실패" style="rounded=1;whiteSpace=wrap;html=1;fillColor=#6a00ff;strokeColor=#3700CC;strokeWidth=2;fontColor=#ffffff;" parent="1" vertex="1">
          <mxGeometry x="60" y="200" width="120" height="30" as="geometry" />
        </mxCell>
      </root>
    </mxGraphModel>
  </diagram>
</mxfile>
